<?xml version="1.0" encoding="iso-8859-1"?>
<!-- Generator: Adobe Illustrator 20.0.0, SVG Export Plug-In . SVG Version: 6.00 Build 0)  -->
<svg version="1.1" id="Layer_1" xmlns="http://www.w3.org/2000/svg" xmlns:xlink="http://www.w3.org/1999/xlink" x="0px" y="0px"
	 viewBox="0 0 240 240.004" style="enable-background:new 0 0 240 240.004;" xml:space="preserve">
<g>
	<g>
		<path style="fill:#FFFFFF;" d="M120,0C53.73,0,0,53.726,0,120c0,66.269,53.73,120.004,120,120.004
			c66.273,0,120-53.735,120-120.004C240,53.726,186.273,0,120,0L120,0z M62.828,172.175c-5.465,0-9.894-4.429-9.894-9.894
			c0-5.469,4.429-9.899,9.894-9.899c5.469,0,9.899,4.43,9.899,9.899C72.727,167.746,68.297,172.175,62.828,172.175L62.828,172.175z
			 M62.828,133.367c-5.465,0-9.894-4.434-9.894-9.899c0-5.468,4.429-9.898,9.894-9.898c5.469,0,9.899,4.43,9.899,9.898
			C72.727,128.937,68.297,133.367,62.828,133.367L62.828,133.367z M62.828,94.64c-5.465,0-9.894-4.429-9.894-9.894
			c0-5.469,4.429-9.899,9.894-9.899c5.469,0,9.899,4.43,9.899,9.899C72.727,90.211,68.297,94.64,62.828,94.64L62.828,94.64z
			 M172.336,172.035H94.359c-5.382,0-9.75-4.367-9.75-9.75c0-5.387,4.368-9.754,9.75-9.754h77.981c5.383,0,9.75,4.367,9.75,9.754
			C182.086,167.668,177.719,172.035,172.336,172.035L172.336,172.035z M172.336,133.222H94.359c-5.382,0-9.75-4.367-9.75-9.75
			c0-5.386,4.368-9.754,9.75-9.754h77.981c5.383,0,9.75,4.368,9.75,9.754C182.086,128.855,177.719,133.222,172.336,133.222
			L172.336,133.222z M172.336,94.406H94.359c-5.382,0-9.75-4.363-9.75-9.75s4.368-9.75,9.75-9.75h77.981
			c5.383,0,9.75,4.367,9.75,9.75C182.086,90.039,177.719,94.406,172.336,94.406L172.336,94.406z M172.336,94.406"/>
	</g>
</g>
</svg>
